<svg xmlns="http://www.w3.org/2000/svg" viewBox="0 -8 32 32">
	<path d="M 29.926 0.992 c -0.288 -0.16 -0.48 -0.32 -1.056 -0.576 S 27.558 0.32 27.014 0.352 C 26.502 0.384 25.51 0 25.51 0 c -0.032 0.8 0.512 1.28 0.512 1.28 c -0.8 0.256 -1.792 1.44 -2.56 1.792 c -0.8 0.384 -2.88 -0.32 -5.408 -1.184 c -2.528 -0.896 -4.352 -0.576 -6.432 0.576 c -0.448 0.256 -0.8 0.576 -1.056 0.896 c -0.928 0.384 -1.792 0.96 -2.656 1.728 c -1.216 1.12 -2.464 1.632 -3.68 1.568 C 2.534 6.56 1.254 5.28 0.774 4.736 c -0.16 -0.192 -0.416 -0.224 -0.608 -0.064 s -0.224 0.448 -0.064 0.608 c 0.704 0.8 2.112 2.144 4.096 2.24 h 0.288 c 1.376 0 2.72 -0.608 4.032 -1.792 c 0.448 -0.384 0.896 -0.736 1.376 -1.024 c -0.16 0.576 -0.128 1.024 -0.128 1.024 s -0.288 2.432 2.24 2.464 s 2.304 0.512 2.688 1.6 c 0.128 0.416 0.128 0.864 0.16 1.248 c 0 0 -2.336 1.792 -2.688 1.856 s -2.816 0.576 -2.432 1.632 c 0 0 0.928 0 2.208 -0.8 c 0.96 -0.608 2.048 -0.8 3.2 -1.472 c 0.128 0.096 0.256 0.192 0.416 0.256 c 1.024 0.384 2.72 0.48 3.872 0.864 c 0.256 0.096 0.48 0.128 0.736 0.096 c 0.416 -0.032 0.928 -0.096 0.832 -0.384 c -0.16 -0.48 -0.736 -0.576 -1.728 -0.608 c -1.536 -0.032 -1.856 -0.16 -2.272 -0.576 c -0.352 -0.352 -0.8 -0.8 -0.8 -2.4 c 0 -0.384 -0.064 -1.44 0 -2.368 c 0.096 -1.12 -1.984 -2.656 -1.984 -2.656 c 2.304 1.28 2.24 2.272 2.4 2.752 c 0.16 0.448 1.088 0.768 1.088 0.768 l -1.184 1.312 c 0 0.512 0.064 1.44 0.352 2.112 c 0.096 -0.512 0.576 -0.768 1.376 -1.152 c 0.864 -0.384 4.224 -1.408 4.896 -2.272 c 0.64 -0.896 3.296 -4.128 4.704 -4.544 c 1.408 -0.384 1.056 -0.352 1.568 -0.352 h 2.208 a 0.37 0.37 0 0 0 0.384 -0.355 V 2.336 c 0 -0.224 -2.08 -1.344 -2.08 -1.344 z" stroke="#FF0000" stroke-width="0.1" fill="#000000"/>
</svg>